<?xml version="1.0" encoding="UTF-8"?>
<svg width="83px" height="60px" viewBox="0 0 83 60" version="1.1" xmlns="http://www.w3.org/2000/svg" xmlns:xlink="http://www.w3.org/1999/xlink">
    <!-- Generator: Sketch 58 (84663) - https://sketch.com -->
    <title>isolated-monochrome-black</title>
    <desc>Created with Sketch.</desc>
    <g id="Page-1" stroke="none" stroke-width="1" fill="none" fill-rule="evenodd">
        <g id="isolated-monochrome-black" fill="#000000" fill-rule="nonzero">
            <path d="M35.5026136,51.1201901 C32.9755782,49.8195389 18.5335608,42.3938071 9.50717776,37.752114 C3.37525685,34.6084662 -0.00780453044,28.8009752 -4.60452295e-07,22.8273605 C-4.60452295e-07,20.2876215 0.608807755,17.7224753 1.84691832,15.334202 C4.7579928,9.69772075 10.4873079,6.46612514 16.4169487,6.47003394 C18.5586519,6.46755459 20.679735,6.88831743 22.6583159,7.7081445 C25.7208561,2.79576739 31.0583146,-0.00292926583 36.572646,2.90301863e-08 C39.0830691,2.90301863e-08 41.6335573,0.578503872 44.0169446,1.79609327 C45.4677792,2.53640847 46.8019096,3.48597216 47.9765531,4.61433389 L47.9794847,4.61433389 L45.9508205,6.73094595 C44.9810567,5.80170726 43.8804583,5.01946924 42.6840458,4.40912219 C40.7930008,3.43891197 38.6980539,2.93309653 36.572646,2.93355238 C31.6739497,2.93355238 26.9511491,5.61303081 24.5706934,10.2742679 L23.8983808,11.5866456 L22.5928436,10.9123786 C20.6853709,9.92012138 18.5670709,9.40160714 16.4169487,9.40065239 C11.5446367,9.40358399 6.84235731,12.0547237 4.44919806,16.6837132 C3.45687466,18.5808984 2.93631916,20.6892654 2.93160871,22.8302921 C2.9404035,27.7026041 5.63453991,32.4537434 10.8478942,35.1478798 C18.8452871,39.2599313 31.0925166,45.5569988 35.5397472,47.8455978 C37.8234602,43.3954356 44.1166189,31.1491834 48.2276932,23.1517904 C49.27525,21.1113998 49.8918623,18.8570028 49.9504942,16.6006513 L52.8801355,16.6710096 C52.8127088,19.4159603 52.0700379,22.0895756 50.8338817,24.4925068 C46.1931658,33.5179126 38.777206,47.9579756 37.4765547,50.4879427 L36.8052193,51.7915256 L35.5026136,51.1201901 Z" id="Path"></path>
            <path d="M44.0364886,58.6739349 C42.6146647,55.6788214 41.2016356,52.6837078 39.7846977,49.6885943 L42.4299742,48.4338713 L46.0583124,56.0921764 C50.5798101,53.94918 63.021502,48.0547183 71.1449536,44.2084648 C76.5967443,41.6140026 79.4530957,36.7495083 79.4618905,31.7286621 C79.4618905,29.7918546 79.0338775,27.8306171 78.1426724,25.9583046 C75.8355066,21.1153086 71.0101002,18.287296 65.9824136,18.2843644 C63.9796811,18.2867583 62.0028128,18.7368206 60.196421,19.6016281 L58.862545,20.2397387 L58.2351835,18.9048855 C55.9446301,14.0237787 51.1006569,11.1664502 46.0456088,11.1664502 C44.1263908,11.1664502 42.1788341,11.5749192 40.3241113,12.4514663 C35.5260664,14.7146581 32.674601,19.3319213 32.6658062,24.5149824 C32.6687378,26.6198681 33.1417019,28.8185648 34.180464,31.0123756 C35.3882814,33.6048833 36.6351867,36.1925051 37.8664569,38.7977164 L35.2143401,40.0495078 C33.9918647,37.4599316 32.7390961,34.868401 31.5254155,32.2573265 C30.3107577,29.6970663 29.7351714,27.0605846 29.7351714,24.5149824 C29.726393,18.2374589 33.2589658,12.5247562 39.0752515,9.7993494 C41.2539125,8.76699802 43.6347349,8.2319228 46.0456088,8.2319228 C51.7524483,8.2319228 57.238441,11.2280137 60.2345318,16.4003256 C62.071295,15.7060105 64.0188017,15.3507445 65.9824136,15.3517916 C72.3069204,15.3519954 78.0682161,18.9873068 80.7908805,24.6957641 C81.8418581,26.8912616 82.3896968,29.293606 82.394492,31.7276849 C82.4061897,37.8820814 78.8169394,43.830289 72.4006537,46.8566729 C63.2306225,51.1964116 48.5599407,58.1530881 45.9899085,59.3706775 L44.6648272,59.9999934 L44.0364886,58.6739349 L44.0364886,58.6739349 Z" id="Shape"></path>
        </g>
    </g>
</svg>